<?xml version="1.0" encoding="UTF-8" standalone="no"?>
<!DOCTYPE svg PUBLIC "-//W3C//DTD SVG 1.1//EN"
 "http://www.w3.org/Graphics/SVG/1.1/DTD/svg11.dtd">
<!-- Generated by graphviz version 12.2.1 (20241206.2353)
 -->
<!-- Pages: 1 -->
<svg width="576pt" height="85pt"
 viewBox="0.00 0.00 576.00 84.98" xmlns="http://www.w3.org/2000/svg" xmlns:xlink="http://www.w3.org/1999/xlink">
<g id="graph0" class="graph" transform="scale(0.200418 0.200418) rotate(0) translate(4 420)">
<polygon fill="white" stroke="none" points="-4,4 -4,-420 2870,-420 2870,4 -4,4"/>
<g id="clust1" class="cluster">
<title>cluster_navigation</title>
<path fill="none" stroke="#ffffe0" d="M20,-223.4C20,-223.4 942,-223.4 942,-223.4 948,-223.4 954,-229.4 954,-235.4 954,-235.4 954,-256.2 954,-256.2 954,-262.2 948,-268.2 942,-268.2 942,-268.2 20,-268.2 20,-268.2 14,-268.2 8,-262.2 8,-256.2 8,-256.2 8,-235.4 8,-235.4 8,-229.4 14,-223.4 20,-223.4"/>
</g>
<g id="clust2" class="cluster">
<title>cluster_homepage</title>
<path fill="none" stroke="#e0ffff" d="M496,-151.6C496,-151.6 1418,-151.6 1418,-151.6 1424,-151.6 1430,-157.6 1430,-163.6 1430,-163.6 1430,-184.4 1430,-184.4 1430,-190.4 1424,-196.4 1418,-196.4 1418,-196.4 496,-196.4 496,-196.4 490,-196.4 484,-190.4 484,-184.4 484,-184.4 484,-163.6 484,-163.6 484,-157.6 490,-151.6 496,-151.6"/>
</g>
<g id="clust3" class="cluster">
<title>cluster_categories</title>
<path fill="none" stroke="#ffb6c1" d="M734,-79.8C734,-79.8 2132,-79.8 2132,-79.8 2138,-79.8 2144,-85.8 2144,-91.8 2144,-91.8 2144,-112.6 2144,-112.6 2144,-118.6 2138,-124.6 2132,-124.6 2132,-124.6 734,-124.6 734,-124.6 728,-124.6 722,-118.6 722,-112.6 722,-112.6 722,-91.8 722,-91.8 722,-85.8 728,-79.8 734,-79.8"/>
</g>
<g id="clust4" class="cluster">
<title>cluster_app_page</title>
<path fill="none" stroke="#98fb98" d="M1686,-8C1686,-8 2846,-8 2846,-8 2852,-8 2858,-14 2858,-20 2858,-20 2858,-40.8 2858,-40.8 2858,-46.8 2852,-52.8 2846,-52.8 2846,-52.8 1686,-52.8 1686,-52.8 1680,-52.8 1674,-46.8 1674,-40.8 1674,-40.8 1674,-20 1674,-20 1674,-14 1680,-8 1686,-8"/>
</g>
<!-- root -->
<g id="node1" class="node">
<title>root</title>
<path fill="#add8e6" stroke="black" d="M696,-416C696,-416 504,-416 504,-416 498,-416 492,-410 492,-404 492,-404 492,-387 492,-387 492,-381 498,-375 504,-375 504,-375 696,-375 696,-375 702,-375 708,-381 708,-387 708,-387 708,-404 708,-404 708,-410 702,-416 696,-416"/>
<text text-anchor="middle" x="600" y="-398.7" font-family="Times,serif" font-size="14.00">Shopify App Store</text>
<text text-anchor="middle" x="600" y="-382.2" font-family="Times,serif" font-size="14.00">apps.shopify.com</text>
</g>
<!-- navigation_header -->
<g id="node2" class="node">
<title>navigation_header</title>
<path fill="#ffffe0" stroke="black" d="M698.4,-332C698.4,-332 501.6,-332 501.6,-332 496.8,-332 492,-327.2 492,-322.4 492,-322.4 492,-312.8 492,-312.8 492,-308 496.8,-303.2 501.6,-303.2 501.6,-303.2 698.4,-303.2 698.4,-303.2 703.2,-303.2 708,-308 708,-312.8 708,-312.8 708,-322.4 708,-322.4 708,-327.2 703.2,-332 698.4,-332"/>
<text text-anchor="middle" x="600" y="-313.33" font-family="Times,serif" font-size="12.00">Navigation &amp; Search</text>
</g>
<!-- root&#45;&gt;navigation_header -->
<g id="edge1" class="edge">
<title>root&#45;&gt;navigation_header</title>
<path fill="none" stroke="black" d="M600,-374.56C600,-365.07 600,-353.62 600,-343.55"/>
<polygon fill="black" stroke="black" points="603.5,-343.7 600,-333.7 596.5,-343.7 603.5,-343.7"/>
</g>
<!-- navigation_item_0 -->
<g id="node3" class="node">
<title>navigation_item_0</title>
<path fill="#ffffe0" stroke="black" d="M222.4,-260.2C222.4,-260.2 25.6,-260.2 25.6,-260.2 20.8,-260.2 16,-255.4 16,-250.6 16,-250.6 16,-241 16,-241 16,-236.2 20.8,-231.4 25.6,-231.4 25.6,-231.4 222.4,-231.4 222.4,-231.4 227.2,-231.4 232,-236.2 232,-241 232,-241 232,-250.6 232,-250.6 232,-255.4 227.2,-260.2 222.4,-260.2"/>
<text text-anchor="middle" x="124" y="-242.1" font-family="Times,serif" font-size="11.00">Global Search</text>
</g>
<!-- navigation_header&#45;&gt;navigation_item_0 -->
<g id="edge2" class="edge">
<title>navigation_header&#45;&gt;navigation_item_0</title>
<path fill="none" stroke="black" d="M491.63,-303.14C420.77,-294.04 326.25,-281.32 243,-268.2 232.11,-266.48 220.69,-264.57 209.4,-262.62"/>
<polygon fill="black" stroke="black" points="210.13,-259.19 199.68,-260.91 208.92,-266.09 210.13,-259.19"/>
</g>
<!-- navigation_item_1 -->
<g id="node4" class="node">
<title>navigation_item_1</title>
<path fill="#ffffe0" stroke="black" d="M460.4,-260.2C460.4,-260.2 263.6,-260.2 263.6,-260.2 258.8,-260.2 254,-255.4 254,-250.6 254,-250.6 254,-241 254,-241 254,-236.2 258.8,-231.4 263.6,-231.4 263.6,-231.4 460.4,-231.4 460.4,-231.4 465.2,-231.4 470,-236.2 470,-241 470,-241 470,-250.6 470,-250.6 470,-255.4 465.2,-260.2 460.4,-260.2"/>
<text text-anchor="middle" x="362" y="-242.1" font-family="Times,serif" font-size="11.00">Category Navigation</text>
</g>
<!-- navigation_header&#45;&gt;navigation_item_1 -->
<g id="edge3" class="edge">
<title>navigation_header&#45;&gt;navigation_item_1</title>
<path fill="none" stroke="black" d="M552.69,-302.73C514.57,-291.55 460.8,-275.78 420.07,-263.83"/>
<polygon fill="black" stroke="black" points="421.25,-260.53 410.67,-261.07 419.28,-267.25 421.25,-260.53"/>
</g>
<!-- navigation_item_2 -->
<g id="node5" class="node">
<title>navigation_item_2</title>
<path fill="#ffffe0" stroke="black" d="M698.4,-260.2C698.4,-260.2 501.6,-260.2 501.6,-260.2 496.8,-260.2 492,-255.4 492,-250.6 492,-250.6 492,-241 492,-241 492,-236.2 496.8,-231.4 501.6,-231.4 501.6,-231.4 698.4,-231.4 698.4,-231.4 703.2,-231.4 708,-236.2 708,-241 708,-241 708,-250.6 708,-250.6 708,-255.4 703.2,-260.2 698.4,-260.2"/>
<text text-anchor="middle" x="600" y="-242.1" font-family="Times,serif" font-size="11.00">Search Filters</text>
</g>
<!-- navigation_header&#45;&gt;navigation_item_2 -->
<g id="edge4" class="edge">
<title>navigation_header&#45;&gt;navigation_item_2</title>
<path fill="none" stroke="black" d="M600,-302.81C600,-294.01 600,-282.35 600,-271.95"/>
<polygon fill="black" stroke="black" points="603.5,-272.08 600,-262.08 596.5,-272.08 603.5,-272.08"/>
</g>
<!-- navigation_item_3 -->
<g id="node6" class="node">
<title>navigation_item_3</title>
<path fill="#ffffe0" stroke="black" d="M936.4,-260.2C936.4,-260.2 739.6,-260.2 739.6,-260.2 734.8,-260.2 730,-255.4 730,-250.6 730,-250.6 730,-241 730,-241 730,-236.2 734.8,-231.4 739.6,-231.4 739.6,-231.4 936.4,-231.4 936.4,-231.4 941.2,-231.4 946,-236.2 946,-241 946,-241 946,-250.6 946,-250.6 946,-255.4 941.2,-260.2 936.4,-260.2"/>
<text text-anchor="middle" x="838" y="-242.1" font-family="Times,serif" font-size="11.00">User Account Menu</text>
</g>
<!-- navigation_header&#45;&gt;navigation_item_3 -->
<g id="edge5" class="edge">
<title>navigation_header&#45;&gt;navigation_item_3</title>
<path fill="none" stroke="black" d="M647.31,-302.73C685.43,-291.55 739.2,-275.78 779.93,-263.83"/>
<polygon fill="black" stroke="black" points="780.72,-267.25 789.33,-261.07 778.75,-260.53 780.72,-267.25"/>
</g>
<!-- homepage_header -->
<g id="node7" class="node">
<title>homepage_header</title>
<path fill="#e0ffff" stroke="black" d="M1174.4,-260.2C1174.4,-260.2 977.6,-260.2 977.6,-260.2 972.8,-260.2 968,-255.4 968,-250.6 968,-250.6 968,-241 968,-241 968,-236.2 972.8,-231.4 977.6,-231.4 977.6,-231.4 1174.4,-231.4 1174.4,-231.4 1179.2,-231.4 1184,-236.2 1184,-241 1184,-241 1184,-250.6 1184,-250.6 1184,-255.4 1179.2,-260.2 1174.4,-260.2"/>
<text text-anchor="middle" x="1076" y="-241.53" font-family="Times,serif" font-size="12.00">Homepage</text>
</g>
<!-- navigation_header&#45;&gt;homepage_header -->
<g id="edge6" class="edge">
<title>navigation_header&#45;&gt;homepage_header</title>
<path fill="none" stroke="black" d="M708.2,-303.36C779.55,-294.29 874.99,-281.54 959,-268.2 969.71,-266.5 980.94,-264.6 992.04,-262.65"/>
<polygon fill="black" stroke="black" points="992.35,-266.15 1001.58,-260.95 991.12,-259.26 992.35,-266.15"/>
</g>
<!-- homepage_item_0 -->
<g id="node8" class="node">
<title>homepage_item_0</title>
<path fill="#e0ffff" stroke="black" d="M698.4,-188.4C698.4,-188.4 501.6,-188.4 501.6,-188.4 496.8,-188.4 492,-183.6 492,-178.8 492,-178.8 492,-169.2 492,-169.2 492,-164.4 496.8,-159.6 501.6,-159.6 501.6,-159.6 698.4,-159.6 698.4,-159.6 703.2,-159.6 708,-164.4 708,-169.2 708,-169.2 708,-178.8 708,-178.8 708,-183.6 703.2,-188.4 698.4,-188.4"/>
<text text-anchor="middle" x="600" y="-170.3" font-family="Times,serif" font-size="11.00">Featured Apps</text>
</g>
<!-- homepage_header&#45;&gt;homepage_item_0 -->
<g id="edge7" class="edge">
<title>homepage_header&#45;&gt;homepage_item_0</title>
<path fill="none" stroke="black" d="M1004.67,-230.94C989.62,-228.25 973.81,-225.58 959,-223.4 852.81,-207.73 825.21,-211.91 719,-196.4 707.67,-194.75 695.76,-192.82 684.04,-190.82"/>
<polygon fill="black" stroke="black" points="684.82,-187.41 674.37,-189.15 683.62,-194.31 684.82,-187.41"/>
</g>
<!-- homepage_item_1 -->
<g id="node9" class="node">
<title>homepage_item_1</title>
<path fill="#e0ffff" stroke="black" d="M936.4,-188.4C936.4,-188.4 739.6,-188.4 739.6,-188.4 734.8,-188.4 730,-183.6 730,-178.8 730,-178.8 730,-169.2 730,-169.2 730,-164.4 734.8,-159.6 739.6,-159.6 739.6,-159.6 936.4,-159.6 936.4,-159.6 941.2,-159.6 946,-164.4 946,-169.2 946,-169.2 946,-178.8 946,-178.8 946,-183.6 941.2,-188.4 936.4,-188.4"/>
<text text-anchor="middle" x="838" y="-170.3" font-family="Times,serif" font-size="11.00">Trending Apps</text>
</g>
<!-- homepage_header&#45;&gt;homepage_item_1 -->
<g id="edge8" class="edge">
<title>homepage_header&#45;&gt;homepage_item_1</title>
<path fill="none" stroke="black" d="M1028.69,-230.93C990.57,-219.75 936.8,-203.98 896.07,-192.03"/>
<polygon fill="black" stroke="black" points="897.25,-188.73 886.67,-189.27 895.28,-195.45 897.25,-188.73"/>
</g>
<!-- homepage_item_2 -->
<g id="node10" class="node">
<title>homepage_item_2</title>
<path fill="#e0ffff" stroke="black" d="M1174.4,-188.4C1174.4,-188.4 977.6,-188.4 977.6,-188.4 972.8,-188.4 968,-183.6 968,-178.8 968,-178.8 968,-169.2 968,-169.2 968,-164.4 972.8,-159.6 977.6,-159.6 977.6,-159.6 1174.4,-159.6 1174.4,-159.6 1179.2,-159.6 1184,-164.4 1184,-169.2 1184,-169.2 1184,-178.8 1184,-178.8 1184,-183.6 1179.2,-188.4 1174.4,-188.4"/>
<text text-anchor="middle" x="1076" y="-170.3" font-family="Times,serif" font-size="11.00">Category Showcase</text>
</g>
<!-- homepage_header&#45;&gt;homepage_item_2 -->
<g id="edge9" class="edge">
<title>homepage_header&#45;&gt;homepage_item_2</title>
<path fill="none" stroke="black" d="M1076,-231.01C1076,-222.21 1076,-210.55 1076,-200.15"/>
<polygon fill="black" stroke="black" points="1079.5,-200.28 1076,-190.28 1072.5,-200.28 1079.5,-200.28"/>
</g>
<!-- homepage_item_3 -->
<g id="node11" class="node">
<title>homepage_item_3</title>
<path fill="#e0ffff" stroke="black" d="M1412.4,-188.4C1412.4,-188.4 1215.6,-188.4 1215.6,-188.4 1210.8,-188.4 1206,-183.6 1206,-178.8 1206,-178.8 1206,-169.2 1206,-169.2 1206,-164.4 1210.8,-159.6 1215.6,-159.6 1215.6,-159.6 1412.4,-159.6 1412.4,-159.6 1417.2,-159.6 1422,-164.4 1422,-169.2 1422,-169.2 1422,-178.8 1422,-178.8 1422,-183.6 1417.2,-188.4 1412.4,-188.4"/>
<text text-anchor="middle" x="1314" y="-170.3" font-family="Times,serif" font-size="11.00">App Collections</text>
</g>
<!-- homepage_header&#45;&gt;homepage_item_3 -->
<g id="edge10" class="edge">
<title>homepage_header&#45;&gt;homepage_item_3</title>
<path fill="none" stroke="black" d="M1123.31,-230.93C1161.43,-219.75 1215.2,-203.98 1255.93,-192.03"/>
<polygon fill="black" stroke="black" points="1256.72,-195.45 1265.33,-189.27 1254.75,-188.73 1256.72,-195.45"/>
</g>
<!-- categories_header -->
<g id="node12" class="node">
<title>categories_header</title>
<path fill="#ffb6c1" stroke="black" d="M1650.4,-188.4C1650.4,-188.4 1453.6,-188.4 1453.6,-188.4 1448.8,-188.4 1444,-183.6 1444,-178.8 1444,-178.8 1444,-169.2 1444,-169.2 1444,-164.4 1448.8,-159.6 1453.6,-159.6 1453.6,-159.6 1650.4,-159.6 1650.4,-159.6 1655.2,-159.6 1660,-164.4 1660,-169.2 1660,-169.2 1660,-178.8 1660,-178.8 1660,-183.6 1655.2,-188.4 1650.4,-188.4"/>
<text text-anchor="middle" x="1552" y="-169.72" font-family="Times,serif" font-size="12.00">Category Pages</text>
</g>
<!-- homepage_header&#45;&gt;categories_header -->
<g id="edge11" class="edge">
<title>homepage_header&#45;&gt;categories_header</title>
<path fill="none" stroke="black" d="M1184.2,-231.56C1255.55,-222.49 1350.99,-209.74 1435,-196.4 1445.71,-194.7 1456.94,-192.8 1468.04,-190.85"/>
<polygon fill="black" stroke="black" points="1468.35,-194.35 1477.58,-189.15 1467.12,-187.46 1468.35,-194.35"/>
</g>
<!-- categories_item_0 -->
<g id="node13" class="node">
<title>categories_item_0</title>
<path fill="#ffb6c1" stroke="black" d="M936.4,-116.6C936.4,-116.6 739.6,-116.6 739.6,-116.6 734.8,-116.6 730,-111.8 730,-107 730,-107 730,-97.4 730,-97.4 730,-92.6 734.8,-87.8 739.6,-87.8 739.6,-87.8 936.4,-87.8 936.4,-87.8 941.2,-87.8 946,-92.6 946,-97.4 946,-97.4 946,-107 946,-107 946,-111.8 941.2,-116.6 936.4,-116.6"/>
<text text-anchor="middle" x="838" y="-98.5" font-family="Times,serif" font-size="11.00">Store Design &amp; Themes</text>
</g>
<!-- categories_header&#45;&gt;categories_item_0 -->
<g id="edge12" class="edge">
<title>categories_header&#45;&gt;categories_item_0</title>
<path fill="none" stroke="black" d="M1484.16,-159.11C1468.1,-156.24 1450.99,-153.51 1435,-151.6 1223.71,-126.41 1168.32,-149.48 957,-124.6 944.42,-123.12 931.17,-121.15 918.25,-119"/>
<polygon fill="black" stroke="black" points="918.94,-115.57 908.5,-117.33 917.76,-122.47 918.94,-115.57"/>
</g>
<!-- categories_item_1 -->
<g id="node14" class="node">
<title>categories_item_1</title>
<path fill="#ffb6c1" stroke="black" d="M1174.4,-116.6C1174.4,-116.6 977.6,-116.6 977.6,-116.6 972.8,-116.6 968,-111.8 968,-107 968,-107 968,-97.4 968,-97.4 968,-92.6 972.8,-87.8 977.6,-87.8 977.6,-87.8 1174.4,-87.8 1174.4,-87.8 1179.2,-87.8 1184,-92.6 1184,-97.4 1184,-97.4 1184,-107 1184,-107 1184,-111.8 1179.2,-116.6 1174.4,-116.6"/>
<text text-anchor="middle" x="1076" y="-98.5" font-family="Times,serif" font-size="11.00">Marketing &amp; Conversion</text>
</g>
<!-- categories_header&#45;&gt;categories_item_1 -->
<g id="edge13" class="edge">
<title>categories_header&#45;&gt;categories_item_1</title>
<path fill="none" stroke="black" d="M1480.67,-159.14C1465.62,-156.45 1449.81,-153.78 1435,-151.6 1328.81,-135.93 1301.21,-140.11 1195,-124.6 1183.67,-122.95 1171.76,-121.02 1160.04,-119.02"/>
<polygon fill="black" stroke="black" points="1160.82,-115.61 1150.37,-117.35 1159.62,-122.51 1160.82,-115.61"/>
</g>
<!-- categories_item_2 -->
<g id="node15" class="node">
<title>categories_item_2</title>
<path fill="#ffb6c1" stroke="black" d="M1412.4,-116.6C1412.4,-116.6 1215.6,-116.6 1215.6,-116.6 1210.8,-116.6 1206,-111.8 1206,-107 1206,-107 1206,-97.4 1206,-97.4 1206,-92.6 1210.8,-87.8 1215.6,-87.8 1215.6,-87.8 1412.4,-87.8 1412.4,-87.8 1417.2,-87.8 1422,-92.6 1422,-97.4 1422,-97.4 1422,-107 1422,-107 1422,-111.8 1417.2,-116.6 1412.4,-116.6"/>
<text text-anchor="middle" x="1314" y="-98.5" font-family="Times,serif" font-size="11.00">Orders &amp; Shipping</text>
</g>
<!-- categories_header&#45;&gt;categories_item_2 -->
<g id="edge14" class="edge">
<title>categories_header&#45;&gt;categories_item_2</title>
<path fill="none" stroke="black" d="M1504.69,-159.13C1466.57,-147.95 1412.8,-132.18 1372.07,-120.23"/>
<polygon fill="black" stroke="black" points="1373.25,-116.93 1362.67,-117.47 1371.28,-123.65 1373.25,-116.93"/>
</g>
<!-- categories_item_3 -->
<g id="node16" class="node">
<title>categories_item_3</title>
<path fill="#ffb6c1" stroke="black" d="M1650.4,-116.6C1650.4,-116.6 1453.6,-116.6 1453.6,-116.6 1448.8,-116.6 1444,-111.8 1444,-107 1444,-107 1444,-97.4 1444,-97.4 1444,-92.6 1448.8,-87.8 1453.6,-87.8 1453.6,-87.8 1650.4,-87.8 1650.4,-87.8 1655.2,-87.8 1660,-92.6 1660,-97.4 1660,-97.4 1660,-107 1660,-107 1660,-111.8 1655.2,-116.6 1650.4,-116.6"/>
<text text-anchor="middle" x="1552" y="-98.5" font-family="Times,serif" font-size="11.00">Sales Channels</text>
</g>
<!-- categories_header&#45;&gt;categories_item_3 -->
<g id="edge15" class="edge">
<title>categories_header&#45;&gt;categories_item_3</title>
<path fill="none" stroke="black" d="M1552,-159.21C1552,-150.41 1552,-138.75 1552,-128.35"/>
<polygon fill="black" stroke="black" points="1555.5,-128.48 1552,-118.48 1548.5,-128.48 1555.5,-128.48"/>
</g>
<!-- categories_item_4 -->
<g id="node17" class="node">
<title>categories_item_4</title>
<path fill="#ffb6c1" stroke="black" d="M1888.4,-116.6C1888.4,-116.6 1691.6,-116.6 1691.6,-116.6 1686.8,-116.6 1682,-111.8 1682,-107 1682,-107 1682,-97.4 1682,-97.4 1682,-92.6 1686.8,-87.8 1691.6,-87.8 1691.6,-87.8 1888.4,-87.8 1888.4,-87.8 1893.2,-87.8 1898,-92.6 1898,-97.4 1898,-97.4 1898,-107 1898,-107 1898,-111.8 1893.2,-116.6 1888.4,-116.6"/>
<text text-anchor="middle" x="1790" y="-98.5" font-family="Times,serif" font-size="11.00">Finding Products</text>
</g>
<!-- categories_header&#45;&gt;categories_item_4 -->
<g id="edge16" class="edge">
<title>categories_header&#45;&gt;categories_item_4</title>
<path fill="none" stroke="black" d="M1599.31,-159.13C1637.43,-147.95 1691.2,-132.18 1731.93,-120.23"/>
<polygon fill="black" stroke="black" points="1732.72,-123.65 1741.33,-117.47 1730.75,-116.93 1732.72,-123.65"/>
</g>
<!-- categories_item_5 -->
<g id="node18" class="node">
<title>categories_item_5</title>
<path fill="#ffb6c1" stroke="black" d="M2126.4,-116.6C2126.4,-116.6 1929.6,-116.6 1929.6,-116.6 1924.8,-116.6 1920,-111.8 1920,-107 1920,-107 1920,-97.4 1920,-97.4 1920,-92.6 1924.8,-87.8 1929.6,-87.8 1929.6,-87.8 2126.4,-87.8 2126.4,-87.8 2131.2,-87.8 2136,-92.6 2136,-97.4 2136,-97.4 2136,-107 2136,-107 2136,-111.8 2131.2,-116.6 2126.4,-116.6"/>
<text text-anchor="middle" x="2028" y="-98.5" font-family="Times,serif" font-size="11.00">Store Management</text>
</g>
<!-- categories_header&#45;&gt;categories_item_5 -->
<g id="edge17" class="edge">
<title>categories_header&#45;&gt;categories_item_5</title>
<path fill="none" stroke="black" d="M1660.37,-159.54C1731.23,-150.44 1825.75,-137.72 1909,-124.6 1919.89,-122.88 1931.31,-120.97 1942.6,-119.02"/>
<polygon fill="black" stroke="black" points="1943.08,-122.49 1952.32,-117.31 1941.87,-115.59 1943.08,-122.49"/>
</g>
<!-- app_page_header -->
<g id="node19" class="node">
<title>app_page_header</title>
<path fill="#98fb98" stroke="black" d="M2364.4,-116.6C2364.4,-116.6 2167.6,-116.6 2167.6,-116.6 2162.8,-116.6 2158,-111.8 2158,-107 2158,-107 2158,-97.4 2158,-97.4 2158,-92.6 2162.8,-87.8 2167.6,-87.8 2167.6,-87.8 2364.4,-87.8 2364.4,-87.8 2369.2,-87.8 2374,-92.6 2374,-97.4 2374,-97.4 2374,-107 2374,-107 2374,-111.8 2369.2,-116.6 2364.4,-116.6"/>
<text text-anchor="middle" x="2266" y="-97.92" font-family="Times,serif" font-size="12.00">App Details Page</text>
</g>
<!-- categories_header&#45;&gt;app_page_header -->
<g id="edge18" class="edge">
<title>categories_header&#45;&gt;app_page_header</title>
<path fill="none" stroke="black" d="M1660.47,-167.47C1780.36,-160.61 1979.02,-146.98 2149,-124.6 2160.83,-123.04 2173.29,-121.1 2185.48,-119.02"/>
<polygon fill="black" stroke="black" points="2185.84,-122.51 2195.09,-117.34 2184.64,-115.61 2185.84,-122.51"/>
</g>
<!-- app_page_item_0 -->
<g id="node20" class="node">
<title>app_page_item_0</title>
<path fill="#98fb98" stroke="black" d="M1888.4,-44.8C1888.4,-44.8 1691.6,-44.8 1691.6,-44.8 1686.8,-44.8 1682,-40 1682,-35.2 1682,-35.2 1682,-25.6 1682,-25.6 1682,-20.8 1686.8,-16 1691.6,-16 1691.6,-16 1888.4,-16 1888.4,-16 1893.2,-16 1898,-20.8 1898,-25.6 1898,-25.6 1898,-35.2 1898,-35.2 1898,-40 1893.2,-44.8 1888.4,-44.8"/>
<text text-anchor="middle" x="1790" y="-26.7" font-family="Times,serif" font-size="11.00">App Overview &amp; Screenshots</text>
</g>
<!-- app_page_header&#45;&gt;app_page_item_0 -->
<g id="edge19" class="edge">
<title>app_page_header&#45;&gt;app_page_item_0</title>
<path fill="none" stroke="black" d="M2194.67,-87.34C2179.62,-84.65 2163.81,-81.98 2149,-79.8 2042.81,-64.13 2015.21,-68.31 1909,-52.8 1897.67,-51.15 1885.76,-49.22 1874.04,-47.22"/>
<polygon fill="black" stroke="black" points="1874.82,-43.81 1864.37,-45.55 1873.62,-50.71 1874.82,-43.81"/>
</g>
<!-- app_page_item_1 -->
<g id="node21" class="node">
<title>app_page_item_1</title>
<path fill="#98fb98" stroke="black" d="M2126.4,-44.8C2126.4,-44.8 1929.6,-44.8 1929.6,-44.8 1924.8,-44.8 1920,-40 1920,-35.2 1920,-35.2 1920,-25.6 1920,-25.6 1920,-20.8 1924.8,-16 1929.6,-16 1929.6,-16 2126.4,-16 2126.4,-16 2131.2,-16 2136,-20.8 2136,-25.6 2136,-25.6 2136,-35.2 2136,-35.2 2136,-40 2131.2,-44.8 2126.4,-44.8"/>
<text text-anchor="middle" x="2028" y="-26.7" font-family="Times,serif" font-size="11.00">Pricing &amp; Installation</text>
</g>
<!-- app_page_header&#45;&gt;app_page_item_1 -->
<g id="edge20" class="edge">
<title>app_page_header&#45;&gt;app_page_item_1</title>
<path fill="none" stroke="black" d="M2218.69,-87.33C2180.57,-76.15 2126.8,-60.38 2086.07,-48.43"/>
<polygon fill="black" stroke="black" points="2087.25,-45.13 2076.67,-45.67 2085.28,-51.85 2087.25,-45.13"/>
</g>
<!-- app_page_item_2 -->
<g id="node22" class="node">
<title>app_page_item_2</title>
<path fill="#98fb98" stroke="black" d="M2364.4,-44.8C2364.4,-44.8 2167.6,-44.8 2167.6,-44.8 2162.8,-44.8 2158,-40 2158,-35.2 2158,-35.2 2158,-25.6 2158,-25.6 2158,-20.8 2162.8,-16 2167.6,-16 2167.6,-16 2364.4,-16 2364.4,-16 2369.2,-16 2374,-20.8 2374,-25.6 2374,-25.6 2374,-35.2 2374,-35.2 2374,-40 2369.2,-44.8 2364.4,-44.8"/>
<text text-anchor="middle" x="2266" y="-26.7" font-family="Times,serif" font-size="11.00">Features &amp; Benefits</text>
</g>
<!-- app_page_header&#45;&gt;app_page_item_2 -->
<g id="edge21" class="edge">
<title>app_page_header&#45;&gt;app_page_item_2</title>
<path fill="none" stroke="black" d="M2266,-87.41C2266,-78.61 2266,-66.95 2266,-56.55"/>
<polygon fill="black" stroke="black" points="2269.5,-56.68 2266,-46.68 2262.5,-56.68 2269.5,-56.68"/>
</g>
<!-- app_page_item_3 -->
<g id="node23" class="node">
<title>app_page_item_3</title>
<path fill="#98fb98" stroke="black" d="M2602.4,-44.8C2602.4,-44.8 2405.6,-44.8 2405.6,-44.8 2400.8,-44.8 2396,-40 2396,-35.2 2396,-35.2 2396,-25.6 2396,-25.6 2396,-20.8 2400.8,-16 2405.6,-16 2405.6,-16 2602.4,-16 2602.4,-16 2607.2,-16 2612,-20.8 2612,-25.6 2612,-25.6 2612,-35.2 2612,-35.2 2612,-40 2607.2,-44.8 2602.4,-44.8"/>
<text text-anchor="middle" x="2504" y="-26.7" font-family="Times,serif" font-size="11.00">Reviews &amp; Ratings</text>
</g>
<!-- app_page_header&#45;&gt;app_page_item_3 -->
<g id="edge22" class="edge">
<title>app_page_header&#45;&gt;app_page_item_3</title>
<path fill="none" stroke="black" d="M2313.31,-87.33C2351.43,-76.15 2405.2,-60.38 2445.93,-48.43"/>
<polygon fill="black" stroke="black" points="2446.72,-51.85 2455.33,-45.67 2444.75,-45.13 2446.72,-51.85"/>
</g>
<!-- app_page_item_4 -->
<g id="node24" class="node">
<title>app_page_item_4</title>
<path fill="#98fb98" stroke="black" d="M2840.4,-44.8C2840.4,-44.8 2643.6,-44.8 2643.6,-44.8 2638.8,-44.8 2634,-40 2634,-35.2 2634,-35.2 2634,-25.6 2634,-25.6 2634,-20.8 2638.8,-16 2643.6,-16 2643.6,-16 2840.4,-16 2840.4,-16 2845.2,-16 2850,-20.8 2850,-25.6 2850,-25.6 2850,-35.2 2850,-35.2 2850,-40 2845.2,-44.8 2840.4,-44.8"/>
<text text-anchor="middle" x="2742" y="-26.7" font-family="Times,serif" font-size="11.00">Support &amp; Documentation</text>
</g>
<!-- app_page_header&#45;&gt;app_page_item_4 -->
<g id="edge23" class="edge">
<title>app_page_header&#45;&gt;app_page_item_4</title>
<path fill="none" stroke="black" d="M2374.37,-87.74C2445.23,-78.64 2539.75,-65.92 2623,-52.8 2633.89,-51.08 2645.31,-49.17 2656.6,-47.22"/>
<polygon fill="black" stroke="black" points="2657.08,-50.69 2666.32,-45.51 2655.87,-43.79 2657.08,-50.69"/>
</g>
</g>
</svg>
